STARTFONT 2.1
COMMENT METAFONT output 1995.04.13:1747
COMMENT fontid=MSBM V2.2
COMMENT codingscheme=TeX math symbols
COMMENT fontfacebyte
COMMENT jobname=msbm10
COMMENT mag=0.25
COMMENT mode=cx
COMMENT pixels_per_inch=300
COMMENT blacker=0
COMMENT fillin=0.2
COMMENT o_correction=0.6
COMMENT Checksum 88b616c8
COMMENT 
COMMENT This file is made by pktobdf using the above specified pk file.
COMMENT 
FONT -metafont-msbm10-medium-r-normal--10-100-75-75-P-59-MetaFont-FONTSPECIFIC
SIZE 10 75 75
FONTBOUNDINGBOX 24 18 -1 -8
STARTPROPERTIES 21
FONT_ASCENT 9
FONT_DESCENT 6
FOUNDRY "metafont"
FAMILY_NAME "msbm10"
WEIGHT_NAME "medium"
SLANT "r"
SETWIDTH_NAME "normal"
ADD_STYLE_NAME ""
PIXEL_SIZE 10
POINT_SIZE 100
RESOLUTOIN_X 75
RESOLUTOIN_Y 75
SPACING "P"
AVERAGE_WIDTH 59
CHARSET_REGISTRY "MetaFont"
CHARSET_ENCODING "FONTSPECIFIC"
AVG_CAPITAL_WIDTH 14
AVG_LOWERCASE_WIDTH 8
COPYRIGHT "MetaFont (public domain)"
DEVICE_FONT_NAME "msbm10"
FULLNAME "msbm10"
ENDPROPERTIES
CHARS 123
STARTCHAR Gamma
ENCODING 0
SWIDTH 762 0
DWIDTH 8 0
BBX 5 13 1 -5
BITMAP
08
10
60
80
40
30
08
20
f8
20
20
f8
20
ENDCHAR
STARTCHAR Delta
ENCODING 1
SWIDTH 762 0
DWIDTH 8 0
BBX 5 13 1 -5
BITMAP
80
40
30
08
10
60
80
20
f8
20
20
f8
20
ENDCHAR
STARTCHAR Theta
ENCODING 2
SWIDTH 762 0
DWIDTH 8 0
BBX 5 12 1 -4
BITMAP
08
10
18
30
60
e0
20
50
48
40
80
f8
ENDCHAR
STARTCHAR Lamdba
ENCODING 3
SWIDTH 762 0
DWIDTH 8 0
BBX 5 12 1 -4
BITMAP
08
10
d0
30
30
38
20
40
c0
40
80
f8
ENDCHAR
STARTCHAR Xi
ENCODING 4
SWIDTH 762 0
DWIDTH 8 0
BBX 5 11 1 -3
BITMAP
08
10
18
30
60
a0
60
70
48
40
80
ENDCHAR
STARTCHAR Pi
ENCODING 5
SWIDTH 762 0
DWIDTH 8 0
BBX 5 11 1 -3
BITMAP
08
10
90
70
30
28
30
60
c0
40
80
ENDCHAR
STARTCHAR Sigma
ENCODING 6
SWIDTH 762 0
DWIDTH 8 0
BBX 5 9 1 -2
BITMAP
08
10
18
28
30
e0
50
48
88
ENDCHAR
STARTCHAR Upsilon
ENCODING 7
SWIDTH 762 0
DWIDTH 8 0
BBX 5 9 1 -2
BITMAP
08
10
90
a0
60
38
40
c0
80
ENDCHAR
STARTCHAR Phi
ENCODING 8
SWIDTH 762 0
DWIDTH 8 0
BBX 5 13 1 -5
BITMAP
08
10
60
80
40
30
08
10
f8
20
20
f8
40
ENDCHAR
STARTCHAR Psi
ENCODING 9
SWIDTH 762 0
DWIDTH 8 0
BBX 5 13 1 -5
BITMAP
80
40
30
08
10
60
80
10
f8
20
20
f8
40
ENDCHAR
STARTCHAR Omega
ENCODING 10
SWIDTH 762 0
DWIDTH 8 0
BBX 5 12 1 -4
BITMAP
08
10
18
30
60
e0
20
50
c8
60
90
08
ENDCHAR
STARTCHAR arrowup
ENCODING 11
SWIDTH 762 0
DWIDTH 8 0
BBX 5 12 1 -4
BITMAP
08
10
d0
30
30
38
20
40
d8
60
c0
80
ENDCHAR
STARTCHAR arrowdown
ENCODING 12
SWIDTH 762 0
DWIDTH 8 0
BBX 5 11 1 -4
BITMAP
08
10
60
80
40
30
08
00
10
f8
40
ENDCHAR
STARTCHAR quotesingle
ENCODING 13
SWIDTH 762 0
DWIDTH 8 0
BBX 5 11 1 -4
BITMAP
80
40
30
08
10
60
80
00
10
f8
40
ENDCHAR
STARTCHAR exclamdown
ENCODING 14
SWIDTH 762 0
DWIDTH 8 0
BBX 5 12 1 -4
BITMAP
08
10
18
18
30
e0
30
48
48
40
80
f8
ENDCHAR
STARTCHAR questiondown
ENCODING 15
SWIDTH 762 0
DWIDTH 8 0
BBX 5 12 1 -4
BITMAP
08
10
90
90
60
38
60
c0
c0
40
80
f8
ENDCHAR
STARTCHAR dotlessi
ENCODING 16
SWIDTH 762 0
DWIDTH 8 0
BBX 5 14 1 -6
BITMAP
08
08
10
e0
10
08
08
10
10
68
a8
b0
20
40
ENDCHAR
STARTCHAR dotlessj
ENCODING 17
SWIDTH 762 0
DWIDTH 8 0
BBX 5 14 1 -6
BITMAP
80
80
40
38
40
80
80
10
10
68
a8
b0
20
40
ENDCHAR
STARTCHAR grave
ENCODING 18
SWIDTH 762 0
DWIDTH 8 0
BBX 5 14 1 -6
BITMAP
08
10
60
80
40
30
08
10
10
68
a8
b0
20
40
ENDCHAR
STARTCHAR acute
ENCODING 19
SWIDTH 762 0
DWIDTH 8 0
BBX 5 14 1 -6
BITMAP
80
40
30
08
10
60
80
10
10
68
a8
b0
20
40
ENDCHAR
STARTCHAR caron
ENCODING 20
SWIDTH 762 0
DWIDTH 8 0
BBX 5 14 1 -4
BITMAP
08
10
18
30
50
e0
20
30
28
40
f8
40
40
f8
ENDCHAR
STARTCHAR breve
ENCODING 21
SWIDTH 762 0
DWIDTH 8 0
BBX 5 14 1 -4
BITMAP
08
10
d0
30
10
38
20
60
a0
40
f8
40
40
f8
ENDCHAR
STARTCHAR macron
ENCODING 22
SWIDTH 762 0
DWIDTH 8 0
BBX 5 13 1 -5
BITMAP
08
08
10
e0
10
08
08
10
f8
20
20
f8
40
ENDCHAR
STARTCHAR ring
ENCODING 23
SWIDTH 762 0
DWIDTH 8 0
BBX 5 13 1 -5
BITMAP
80
80
40
38
40
80
80
10
f8
20
20
f8
40
ENDCHAR
STARTCHAR cedilla
ENCODING 24
SWIDTH 762 0
DWIDTH 8 0
BBX 5 13 1 -5
BITMAP
08
08
70
f0
08
08
00
58
a8
b0
68
a8
d0
ENDCHAR
STARTCHAR germandbls
ENCODING 25
SWIDTH 762 0
DWIDTH 8 0
BBX 5 13 1 -5
BITMAP
80
80
70
78
80
80
00
58
a8
b0
68
a8
d0
ENDCHAR
STARTCHAR ae
ENCODING 26
SWIDTH 762 0
DWIDTH 8 0
BBX 5 14 1 -6
BITMAP
08
30
c0
c0
30
08
10
68
a8
b0
68
a8
b0
40
ENDCHAR
STARTCHAR oe
ENCODING 27
SWIDTH 762 0
DWIDTH 8 0
BBX 5 14 1 -6
BITMAP
80
60
18
18
60
80
10
68
a8
b0
68
a8
b0
40
ENDCHAR
STARTCHAR oslash
ENCODING 28
SWIDTH 762 0
DWIDTH 8 0
BBX 5 5 1 0
BITMAP
10
58
f8
f0
40
ENDCHAR
STARTCHAR AE
ENCODING 29
SWIDTH 762 0
DWIDTH 8 0
BBX 5 9 1 -3
BITMAP
48
b8
b8
20
40
f8
80
00
f8
ENDCHAR
STARTCHAR OE
ENCODING 30
SWIDTH 858 0
DWIDTH 9 0
BBX 8 9 0 -2
BITMAP
01
02
04
04
08
10
20
40
80
ENDCHAR
STARTCHAR Oslash
ENCODING 31
SWIDTH 858 0
DWIDTH 9 0
BBX 8 9 0 -2
BITMAP
80
40
20
10
08
04
04
02
01
ENDCHAR
STARTCHAR tilde
ENCODING 32
SWIDTH 762 0
DWIDTH 8 0
BBX 5 11 1 -4
BITMAP
78
80
80
80
80
90
78
20
20
f8
40
ENDCHAR
STARTCHAR exclam
ENCODING 33
SWIDTH 762 0
DWIDTH 8 0
BBX 5 11 1 -4
BITMAP
f0
08
08
08
08
18
f0
20
40
f8
80
ENDCHAR
STARTCHAR quotedblright
ENCODING 34
SWIDTH 762 0
DWIDTH 8 0
BBX 5 14 1 -5
BITMAP
08
78
90
90
90
a0
a0
78
40
40
f8
80
80
f8
ENDCHAR
STARTCHAR numbersign
ENCODING 35
SWIDTH 762 0
DWIDTH 8 0
BBX 5 14 1 -5
BITMAP
08
f8
18
18
18
28
28
f0
40
40
f8
80
80
f8
ENDCHAR
STARTCHAR dollar
ENCODING 36
SWIDTH 762 0
DWIDTH 8 0
BBX 5 16 1 -8
BITMAP
78
80
80
80
80
80
78
00
08
10
f8
20
20
f8
40
80
ENDCHAR
STARTCHAR percent
ENCODING 37
SWIDTH 762 0
DWIDTH 8 0
BBX 5 16 1 -8
BITMAP
f0
08
08
08
08
08
f0
00
08
10
f8
20
20
f8
40
80
ENDCHAR
STARTCHAR ampersand
ENCODING 38
SWIDTH 762 0
DWIDTH 8 0
BBX 5 14 1 -6
BITMAP
78
80
80
80
80
88
78
10
10
f8
20
20
f8
40
ENDCHAR
STARTCHAR quoteright
ENCODING 39
SWIDTH 762 0
DWIDTH 8 0
BBX 5 14 1 -6
BITMAP
f0
08
08
08
08
28
f0
40
40
f8
40
80
f8
80
ENDCHAR
STARTCHAR parenleft
ENCODING 40
SWIDTH 762 0
DWIDTH 8 0
BBX 5 11 1 -4
BITMAP
78
80
80
80
80
80
78
00
10
f8
40
ENDCHAR
STARTCHAR parenright
ENCODING 41
SWIDTH 762 0
DWIDTH 8 0
BBX 5 11 1 -4
BITMAP
f0
08
08
08
08
08
f0
00
10
f8
40
ENDCHAR
STARTCHAR asterisk
ENCODING 42
SWIDTH 762 0
DWIDTH 8 0
BBX 5 12 1 -4
BITMAP
08
10
78
90
a0
a0
a0
c0
78
40
80
f8
ENDCHAR
STARTCHAR plus
ENCODING 43
SWIDTH 762 0
DWIDTH 8 0
BBX 5 12 1 -4
BITMAP
08
10
f0
18
28
28
28
48
f0
40
80
f8
ENDCHAR
STARTCHAR comma
ENCODING 44
SWIDTH 476 0
DWIDTH 5 0
BBX 4 11 0 -3
BITMAP
90
90
90
90
b0
d0
d0
90
90
90
90
ENDCHAR
STARTCHAR hyphen
ENCODING 45
SWIDTH 286 0
DWIDTH 3 0
BBX 2 11 0 -3
BITMAP
40
40
40
40
c0
40
40
40
40
40
40
ENDCHAR
STARTCHAR period
ENCODING 46
SWIDTH 190 0
DWIDTH 2 0
BBX 2 4 0 0
BITMAP
c0
c0
c0
40
ENDCHAR
STARTCHAR slash
ENCODING 47
SWIDTH 381 0
DWIDTH 4 0
BBX 3 4 0 0
BITMAP
60
40
c0
40
ENDCHAR
STARTCHAR 0
ENCODING 48
SWIDTH 572 0
DWIDTH 6 0
BBX 5 7 -1 0
BITMAP
28
28
30
38
20
60
a0
ENDCHAR
STARTCHAR 1
ENCODING 49
SWIDTH 667 0
DWIDTH 7 0
BBX 6 7 -1 0
BITMAP
24
24
2c
34
24
64
a4
ENDCHAR
STARTCHAR 2
ENCODING 50
SWIDTH 572 0
DWIDTH 6 0
BBX 5 7 -1 0
BITMAP
28
38
30
20
38
60
a0
ENDCHAR
STARTCHAR 3
ENCODING 51
SWIDTH 667 0
DWIDTH 7 0
BBX 6 7 -1 0
BITMAP
24
24
2c
34
24
64
a4
ENDCHAR
STARTCHAR 4
ENCODING 52
SWIDTH 762 0
DWIDTH 8 0
BBX 5 12 1 -4
BITMAP
08
10
d0
b0
b8
a8
b0
c0
c0
40
80
f8
ENDCHAR
STARTCHAR 5
ENCODING 53
SWIDTH 762 0
DWIDTH 8 0
BBX 5 12 1 -4
BITMAP
08
10
18
38
68
68
28
58
48
40
80
78
ENDCHAR
STARTCHAR 6
ENCODING 54
SWIDTH 762 0
DWIDTH 8 0
BBX 5 9 1 -2
BITMAP
08
10
18
38
68
68
68
58
88
ENDCHAR
STARTCHAR 7
ENCODING 55
SWIDTH 762 0
DWIDTH 8 0
BBX 5 9 1 -2
BITMAP
08
10
d0
a0
b8
a8
f0
c0
80
ENDCHAR
STARTCHAR 8
ENCODING 56
SWIDTH 953 0
DWIDTH 10 0
BBX 7 5 1 0
BITMAP
08
48
fe
60
20
ENDCHAR
STARTCHAR 9
ENCODING 57
SWIDTH 953 0
DWIDTH 10 0
BBX 7 5 1 0
BITMAP
08
0c
fe
24
20
ENDCHAR
STARTCHAR colon
ENCODING 58
SWIDTH 953 0
DWIDTH 10 0
BBX 6 7 2 -1
BITMAP
28
7c
90
90
60
7c
20
ENDCHAR
STARTCHAR semicolon
ENCODING 59
SWIDTH 953 0
DWIDTH 10 0
BBX 6 7 1 -1
BITMAP
10
f8
24
24
28
f8
50
ENDCHAR
STARTCHAR less
ENCODING 60
SWIDTH 953 0
DWIDTH 10 0
BBX 5 7 2 -1
BITMAP
50
70
a8
a8
a8
70
50
ENDCHAR
STARTCHAR equal
ENCODING 61
SWIDTH 953 0
DWIDTH 10 0
BBX 7 5 1 0
BITMAP
08
4c
fe
64
20
ENDCHAR
STARTCHAR greater
ENCODING 62
SWIDTH 762 0
DWIDTH 8 0
BBX 5 5 1 0
BITMAP
b8
50
f8
50
b8
ENDCHAR
STARTCHAR question
ENCODING 63
SWIDTH 762 0
DWIDTH 8 0
BBX 5 4 1 1
BITMAP
78
b8
c8
f0
ENDCHAR
STARTCHAR at
ENCODING 64
SWIDTH 572 0
DWIDTH 6 0
BBX 3 10 1 -1
BITMAP
20
20
e0
60
60
e0
60
60
e0
80
ENDCHAR
STARTCHAR A
ENCODING 65
SWIDTH 762 0
DWIDTH 8 0
BBX 6 7 0 0
BITMAP
10
10
28
28
38
74
fc
ENDCHAR
STARTCHAR B
ENCODING 66
SWIDTH 572 0
DWIDTH 6 0
BBX 7 7 0 0
BITMAP
fc
78
78
5c
5a
5a
fc
ENDCHAR
STARTCHAR C
ENCODING 67
SWIDTH 667 0
DWIDTH 7 0
BBX 9 7 0 0
BITMAP
1f00
7400
a400
a000
a300
7080
1f00
ENDCHAR
STARTCHAR D
ENCODING 68
SWIDTH 762 0
DWIDTH 8 0
BBX 7 7 0 0
BITMAP
fc
5a
5a
5a
5a
5a
fc
ENDCHAR
STARTCHAR E
ENCODING 69
SWIDTH 667 0
DWIDTH 7 0
BBX 7 7 0 0
BITMAP
fc
74
74
70
72
74
fc
ENDCHAR
STARTCHAR F
ENCODING 70
SWIDTH 572 0
DWIDTH 6 0
BBX 6 7 0 0
BITMAP
fc
7c
7c
70
70
70
f8
ENDCHAR
STARTCHAR G
ENCODING 71
SWIDTH 762 0
DWIDTH 8 0
BBX 10 7 0 0
BITMAP
1f00
7400
be00
b580
b480
7440
1f80
ENDCHAR
STARTCHAR H
ENCODING 72
SWIDTH 762 0
DWIDTH 8 0
BBX 6 7 1 0
BITMAP
fc
78
78
78
78
78
fc
ENDCHAR
STARTCHAR I
ENCODING 73
SWIDTH 381 0
DWIDTH 4 0
BBX 5 7 0 0
BITMAP
f8
50
50
50
50
50
f8
ENDCHAR
STARTCHAR J
ENCODING 74
SWIDTH 476 0
DWIDTH 5 0
BBX 5 8 -1 -1
BITMAP
f8
50
50
50
50
70
70
70
ENDCHAR
STARTCHAR K
ENCODING 75
SWIDTH 762 0
DWIDTH 8 0
BBX 8 7 1 0
BITMAP
fc
58
54
5c
5c
5a
ff
ENDCHAR
STARTCHAR L
ENCODING 76
SWIDTH 667 0
DWIDTH 7 0
BBX 7 7 0 0
BITMAP
f8
50
50
52
54
54
fc
ENDCHAR
STARTCHAR M
ENCODING 77
SWIDTH 953 0
DWIDTH 10 0
BBX 9 8 0 0
BITMAP
c000
f780
5500
7d00
7d00
6d00
5500
ff80
ENDCHAR
STARTCHAR N
ENCODING 78
SWIDTH 762 0
DWIDTH 8 0
BBX 6 7 1 0
BITMAP
7c
48
68
68
58
58
e8
ENDCHAR
STARTCHAR O
ENCODING 79
SWIDTH 762 0
DWIDTH 8 0
BBX 8 7 0 0
BITMAP
3c
66
a5
a5
a5
66
3c
ENDCHAR
STARTCHAR P
ENCODING 80
SWIDTH 572 0
DWIDTH 6 0
BBX 6 7 0 0
BITMAP
fc
50
50
50
50
50
f8
ENDCHAR
STARTCHAR Q
ENCODING 81
SWIDTH 762 0
DWIDTH 8 0
BBX 8 9 0 -2
BITMAP
3c
66
a5
a5
a5
66
3c
18
0f
ENDCHAR
STARTCHAR R
ENCODING 82
SWIDTH 762 0
DWIDTH 8 0
BBX 7 7 0 0
BITMAP
fc
5c
5c
5c
5c
52
fe
ENDCHAR
STARTCHAR S
ENCODING 83
SWIDTH 572 0
DWIDTH 6 0
BBX 6 7 0 0
BITMAP
78
88
f8
cc
bc
c4
f8
ENDCHAR
STARTCHAR T
ENCODING 84
SWIDTH 667 0
DWIDTH 7 0
BBX 7 7 1 0
BITMAP
fe
ee
aa
28
28
28
7c
ENDCHAR
STARTCHAR U
ENCODING 85
SWIDTH 762 0
DWIDTH 8 0
BBX 7 7 0 0
BITMAP
fe
54
54
54
54
5c
38
ENDCHAR
STARTCHAR V
ENCODING 86
SWIDTH 762 0
DWIDTH 8 0
BBX 6 7 1 0
BITMAP
fc
a8
a8
50
50
20
20
ENDCHAR
STARTCHAR W
ENCODING 87
SWIDTH 1049 0
DWIDTH 11 0
BBX 8 7 1 0
BITMAP
ff
b5
bb
7a
66
66
24
ENDCHAR
STARTCHAR X
ENCODING 88
SWIDTH 762 0
DWIDTH 8 0
BBX 7 7 0 0
BITMAP
fe
54
48
28
34
52
fe
ENDCHAR
STARTCHAR Y
ENCODING 89
SWIDTH 762 0
DWIDTH 8 0
BBX 8 7 1 0
BITMAP
f8
4c
24
12
0a
0a
1f
ENDCHAR
STARTCHAR Z
ENCODING 90
SWIDTH 667 0
DWIDTH 7 0
BBX 6 7 1 0
BITMAP
f8
c8
d0
54
a4
a8
f8
ENDCHAR
STARTCHAR bracketleft
ENCODING 91
SWIDTH 1907 0
DWIDTH 20 0
BBX 19 3 0 6
BITMAP
01f000
1f1f00
f001e0
ENDCHAR
STARTCHAR leftdblquote
ENCODING 92
SWIDTH 2288 0
DWIDTH 24 0
BBX 23 3 0 6
BITMAP
007c00
0f83e0
f8003e
ENDCHAR
STARTCHAR bracketright
ENCODING 93
SWIDTH 1907 0
DWIDTH 20 0
BBX 19 4 0 5
BITMAP
078060
3fc3e0
f87f80
c03c00
ENDCHAR
STARTCHAR circumflex
ENCODING 94
SWIDTH 2288 0
DWIDTH 24 0
BBX 23 4 0 5
BITMAP
03e006
3ff83e
f83ff8
c00f80
ENDCHAR
STARTCHAR leftquote
ENCODING 96
SWIDTH 572 0
DWIDTH 6 0
BBX 3 7 1 0
BITMAP
20
20
20
60
20
20
e0
ENDCHAR
STARTCHAR a
ENCODING 97
SWIDTH 667 0
DWIDTH 7 0
BBX 4 7 1 0
BITMAP
e0
10
10
90
90
90
e0
ENDCHAR
STARTCHAR f
ENCODING 102
SWIDTH 667 0
DWIDTH 7 0
BBX 6 7 0 0
BITMAP
fc
b4
48
48
48
48
30
ENDCHAR
STARTCHAR g
ENCODING 103
SWIDTH 572 0
DWIDTH 6 0
BBX 5 7 0 0
BITMAP
f8
f8
88
78
88
88
70
ENDCHAR
STARTCHAR h
ENCODING 104
SWIDTH 762 0
DWIDTH 8 0
BBX 5 5 1 0
BITMAP
f8
08
e8
a8
90
ENDCHAR
STARTCHAR i
ENCODING 105
SWIDTH 667 0
DWIDTH 7 0
BBX 6 8 0 0
BITMAP
78
78
08
08
08
08
08
fc
ENDCHAR
STARTCHAR j
ENCODING 106
SWIDTH 476 0
DWIDTH 5 0
BBX 4 8 0 0
BITMAP
60
60
30
30
30
30
30
f0
ENDCHAR
STARTCHAR k
ENCODING 107
SWIDTH 667 0
DWIDTH 7 0
BBX 5 8 1 0
BITMAP
f0
f0
18
18
18
18
18
18
ENDCHAR
STARTCHAR l
ENCODING 108
SWIDTH 762 0
DWIDTH 8 0
BBX 5 7 1 -1
BITMAP
08
30
40
90
40
30
08
ENDCHAR
STARTCHAR m
ENCODING 109
SWIDTH 762 0
DWIDTH 8 0
BBX 5 7 1 -1
BITMAP
80
60
10
48
10
60
80
ENDCHAR
STARTCHAR n
ENCODING 110
SWIDTH 762 0
DWIDTH 8 0
BBX 5 5 1 0
BITMAP
88
d0
a0
d0
88
ENDCHAR
STARTCHAR o
ENCODING 111
SWIDTH 762 0
DWIDTH 8 0
BBX 5 5 1 0
BITMAP
88
58
28
58
88
ENDCHAR
STARTCHAR p
ENCODING 112
SWIDTH 190 0
DWIDTH 2 0
BBX 1 4 1 0
BITMAP
80
80
80
80
ENDCHAR
STARTCHAR q
ENCODING 113
SWIDTH 381 0
DWIDTH 4 0
BBX 1 4 1 0
BITMAP
80
80
80
80
ENDCHAR
STARTCHAR r
ENCODING 114
SWIDTH 762 0
DWIDTH 8 0
BBX 5 4 1 0
BITMAP
80
40
30
08
ENDCHAR
STARTCHAR s
ENCODING 115
SWIDTH 762 0
DWIDTH 8 0
BBX 5 3 1 1
BITMAP
48
f8
b0
ENDCHAR
STARTCHAR t
ENCODING 116
SWIDTH 762 0
DWIDTH 8 0
BBX 5 6 1 -1
BITMAP
48
f8
b0
48
f8
b0
ENDCHAR
STARTCHAR u
ENCODING 117
SWIDTH 762 0
DWIDTH 8 0
BBX 5 9 1 -3
BITMAP
48
a8
90
48
a8
90
00
00
f8
ENDCHAR
STARTCHAR v
ENCODING 118
SWIDTH 762 0
DWIDTH 8 0
BBX 5 13 1 -5
BITMAP
80
80
70
78
80
80
00
48
a8
90
48
a8
90
ENDCHAR
STARTCHAR w
ENCODING 119
SWIDTH 762 0
DWIDTH 8 0
BBX 5 13 1 -5
BITMAP
08
08
70
f0
08
08
00
48
a8
90
48
a8
90
ENDCHAR
STARTCHAR x
ENCODING 120
SWIDTH 953 0
DWIDTH 10 0
BBX 9 4 0 0
BITMAP
3e00
4100
e080
4080
ENDCHAR
STARTCHAR y
ENCODING 121
SWIDTH 953 0
DWIDTH 10 0
BBX 9 4 0 0
BITMAP
3e00
4100
8380
8100
ENDCHAR
STARTCHAR z
ENCODING 122
SWIDTH 762 0
DWIDTH 8 0
BBX 5 7 1 -1
BITMAP
78
70
70
f0
e0
e0
e0
ENDCHAR
STARTCHAR endash
ENCODING 123
SWIDTH 667 0
DWIDTH 7 0
BBX 5 4 1 0
BITMAP
18
20
20
c0
ENDCHAR
STARTCHAR emdash
ENCODING 124
SWIDTH 572 0
DWIDTH 6 0
BBX 5 7 1 0
BITMAP
c0
c0
f0
e0
f0
f0
f8
ENDCHAR
STARTCHAR quotedbl
ENCODING 125
SWIDTH 572 0
DWIDTH 6 0
BBX 4 7 0 0
BITMAP
60
70
c0
60
50
b0
b0
ENDCHAR
STARTCHAR hungarumlaut
ENCODING 126
SWIDTH 572 0
DWIDTH 6 0
BBX 4 7 0 0
BITMAP
60
f0
40
60
50
b0
b0
ENDCHAR
STARTCHAR dieresis
ENCODING 127
SWIDTH 381 0
DWIDTH 4 0
BBX 3 4 1 0
BITMAP
e0
20
e0
e0
ENDCHAR
ENDFONT
